<svg width="45" height="42" viewBox="0 0 45 42" fill="none" xmlns="http://www.w3.org/2000/svg">
<path d="M18.5 2V5" stroke="white" stroke-width="1.5" stroke-miterlimit="10" stroke-linecap="round" stroke-linejoin="round"/>
<path d="M18.5 2V5" stroke="#06970A" stroke-width="1.5" stroke-miterlimit="10" stroke-linecap="round" stroke-linejoin="round"/>
<path d="M26.5 2V5" stroke="white" stroke-width="1.5" stroke-miterlimit="10" stroke-linecap="round" stroke-linejoin="round"/>
<path d="M26.5 2V5" stroke="#06970A" stroke-width="1.5" stroke-miterlimit="10" stroke-linecap="round" stroke-linejoin="round"/>
<path d="M14 9.08997H31" stroke="white" stroke-width="1.5" stroke-miterlimit="10" stroke-linecap="round" stroke-linejoin="round"/>
<path d="M14 9.08997H31" stroke="#06970A" stroke-width="1.5" stroke-miterlimit="10" stroke-linecap="round" stroke-linejoin="round"/>
<path d="M31.5 8.5V17C31.5 20 30 22 26.5 22H18.5C15 22 13.5 20 13.5 17V8.5C13.5 5.5 15 3.5 18.5 3.5H26.5C30 3.5 31.5 5.5 31.5 8.5Z" stroke="white" stroke-width="1.5" stroke-miterlimit="10" stroke-linecap="round" stroke-linejoin="round"/>
<path d="M31.5 8.5V17C31.5 20 30 22 26.5 22H18.5C15 22 13.5 20 13.5 17V8.5C13.5 5.5 15 3.5 18.5 3.5H26.5C30 3.5 31.5 5.5 31.5 8.5Z" stroke="#06970A" stroke-width="1.5" stroke-miterlimit="10" stroke-linecap="round" stroke-linejoin="round"/>
<path d="M22.4955 13.7H22.5045" stroke="white" stroke-width="2" stroke-linecap="round" stroke-linejoin="round"/>
<path d="M22.4955 13.7H22.5045" stroke="#06970A" stroke-width="2" stroke-linecap="round" stroke-linejoin="round"/>
<path d="M18.7943 13.7H18.8033" stroke="white" stroke-width="2" stroke-linecap="round" stroke-linejoin="round"/>
<path d="M18.7943 13.7H18.8033" stroke="#06970A" stroke-width="2" stroke-linecap="round" stroke-linejoin="round"/>
<path d="M18.7943 16.7H18.8033" stroke="white" stroke-width="2" stroke-linecap="round" stroke-linejoin="round"/>
<path d="M18.7943 16.7H18.8033" stroke="#06970A" stroke-width="2" stroke-linecap="round" stroke-linejoin="round"/>
<path d="M4.53176 40.1C3.99842 40.1 3.50176 40.0133 3.04176 39.84C2.58842 39.66 2.19176 39.41 1.85176 39.09C1.51842 38.7633 1.25842 38.38 1.07176 37.94C0.88509 37.5 0.791757 37.02 0.791757 36.5C0.791757 35.98 0.88509 35.5 1.07176 35.06C1.25842 34.62 1.52176 34.24 1.86176 33.92C2.20176 33.5933 2.59842 33.3433 3.05176 33.17C3.50509 32.99 4.00176 32.9 4.54176 32.9C5.11509 32.9 5.63842 33 6.11176 33.2C6.58509 33.3933 6.98509 33.6833 7.31176 34.07L6.47176 34.86C6.21842 34.5867 5.93509 34.3833 5.62176 34.25C5.30842 34.11 4.96842 34.04 4.60176 34.04C4.23509 34.04 3.89842 34.1 3.59176 34.22C3.29176 34.34 3.02842 34.51 2.80176 34.73C2.58176 34.95 2.40842 35.21 2.28176 35.51C2.16176 35.81 2.10176 36.14 2.10176 36.5C2.10176 36.86 2.16176 37.19 2.28176 37.49C2.40842 37.79 2.58176 38.05 2.80176 38.27C3.02842 38.49 3.29176 38.66 3.59176 38.78C3.89842 38.9 4.23509 38.96 4.60176 38.96C4.96842 38.96 5.30842 38.8933 5.62176 38.76C5.93509 38.62 6.21842 38.41 6.47176 38.13L7.31176 38.93C6.98509 39.31 6.58509 39.6 6.11176 39.8C5.63842 40 5.11176 40.1 4.53176 40.1ZM11.3786 40V38.92L11.3086 38.69V36.8C11.3086 36.4333 11.1986 36.15 10.9786 35.95C10.7586 35.7433 10.4252 35.64 9.97855 35.64C9.67855 35.64 9.38189 35.6867 9.08855 35.78C8.80189 35.8733 8.55855 36.0033 8.35855 36.17L7.86855 35.26C8.15522 35.04 8.49522 34.8767 8.88855 34.77C9.28855 34.6567 9.70189 34.6 10.1286 34.6C10.9019 34.6 11.4986 34.7867 11.9186 35.16C12.3452 35.5267 12.5586 36.0967 12.5586 36.87V40H11.3786ZM9.69855 40.07C9.29855 40.07 8.94855 40.0033 8.64855 39.87C8.34855 39.73 8.11522 39.54 7.94855 39.3C7.78855 39.0533 7.70855 38.7767 7.70855 38.47C7.70855 38.17 7.77855 37.9 7.91855 37.66C8.06522 37.42 8.30189 37.23 8.62855 37.09C8.95522 36.95 9.38855 36.88 9.92855 36.88H11.4786V37.71H10.0186C9.59189 37.71 9.30522 37.78 9.15855 37.92C9.01189 38.0533 8.93855 38.22 8.93855 38.42C8.93855 38.6467 9.02855 38.8267 9.20855 38.96C9.38855 39.0933 9.63855 39.16 9.95855 39.16C10.2652 39.16 10.5386 39.09 10.7786 38.95C11.0252 38.81 11.2019 38.6033 11.3086 38.33L11.5186 39.08C11.3986 39.3933 11.1819 39.6367 10.8686 39.81C10.5619 39.9833 10.1719 40.07 9.69855 40.07ZM13.8628 40V32.58H15.1128V40H13.8628ZM18.9634 40.07C18.3701 40.07 17.8501 39.9533 17.4034 39.72C16.9634 39.48 16.6201 39.1533 16.3734 38.74C16.1334 38.3267 16.0134 37.8567 16.0134 37.33C16.0134 36.7967 16.1301 36.3267 16.3634 35.92C16.6034 35.5067 16.9301 35.1833 17.3434 34.95C17.7634 34.7167 18.2401 34.6 18.7734 34.6C19.2934 34.6 19.7567 34.7133 20.1634 34.94C20.5701 35.1667 20.8901 35.4867 21.1234 35.9C21.3567 36.3133 21.4734 36.8 21.4734 37.36C21.4734 37.4133 21.4701 37.4733 21.4634 37.54C21.4634 37.6067 21.4601 37.67 21.4534 37.73H17.0034V36.9H20.7934L20.3034 37.16C20.3101 36.8533 20.2467 36.5833 20.1134 36.35C19.9801 36.1167 19.7967 35.9333 19.5634 35.8C19.3367 35.6667 19.0734 35.6 18.7734 35.6C18.4667 35.6 18.1967 35.6667 17.9634 35.8C17.7367 35.9333 17.5567 36.12 17.4234 36.36C17.2967 36.5933 17.2334 36.87 17.2334 37.19V37.39C17.2334 37.71 17.3067 37.9933 17.4534 38.24C17.6001 38.4867 17.8067 38.6767 18.0734 38.81C18.3401 38.9433 18.6467 39.01 18.9934 39.01C19.2934 39.01 19.5634 38.9633 19.8034 38.87C20.0434 38.7767 20.2567 38.63 20.4434 38.43L21.1134 39.2C20.8734 39.48 20.5701 39.6967 20.2034 39.85C19.8434 39.9967 19.4301 40.07 18.9634 40.07ZM25.4041 34.6C25.8308 34.6 26.2108 34.6833 26.5441 34.85C26.8841 35.0167 27.1508 35.2733 27.3441 35.62C27.5374 35.96 27.6341 36.4 27.6341 36.94V40H26.3841V37.1C26.3841 36.6267 26.2708 36.2733 26.0441 36.04C25.8241 35.8067 25.5141 35.69 25.1141 35.69C24.8208 35.69 24.5608 35.75 24.3341 35.87C24.1074 35.99 23.9308 36.17 23.8041 36.41C23.6841 36.6433 23.6241 36.94 23.6241 37.3V40H22.3741V34.66H23.5641V36.1L23.3541 35.66C23.5408 35.32 23.8108 35.06 24.1641 34.88C24.5241 34.6933 24.9374 34.6 25.4041 34.6ZM31.1896 40.07C30.6762 40.07 30.2129 39.9567 29.7996 39.73C29.3929 39.4967 29.0729 39.1767 28.8396 38.77C28.6062 38.3633 28.4896 37.8833 28.4896 37.33C28.4896 36.7767 28.6062 36.2967 28.8396 35.89C29.0729 35.4833 29.3929 35.1667 29.7996 34.94C30.2129 34.7133 30.6762 34.6 31.1896 34.6C31.6362 34.6 32.0362 34.7 32.3896 34.9C32.7429 35.0933 33.0229 35.39 33.2296 35.79C33.4362 36.19 33.5396 36.7033 33.5396 37.33C33.5396 37.95 33.4396 38.4633 33.2396 38.87C33.0396 39.27 32.7629 39.57 32.4096 39.77C32.0562 39.97 31.6496 40.07 31.1896 40.07ZM31.3396 39C31.6396 39 31.9062 38.9333 32.1396 38.8C32.3796 38.6667 32.5696 38.4733 32.7096 38.22C32.8562 37.9667 32.9296 37.67 32.9296 37.33C32.9296 36.9833 32.8562 36.6867 32.7096 36.44C32.5696 36.1867 32.3796 35.9933 32.1396 35.86C31.9062 35.7267 31.6396 35.66 31.3396 35.66C31.0396 35.66 30.7696 35.7267 30.5296 35.86C30.2962 35.9933 30.1062 36.1867 29.9596 36.44C29.8196 36.6867 29.7496 36.9833 29.7496 37.33C29.7496 37.67 29.8196 37.9667 29.9596 38.22C30.1062 38.4733 30.2962 38.6667 30.5296 38.8C30.7696 38.9333 31.0396 39 31.3396 39ZM32.9596 40V38.74L33.0096 37.32L32.9096 35.9V32.58H34.1496V40H32.9596ZM38.7848 40V38.92L38.7148 38.69V36.8C38.7148 36.4333 38.6048 36.15 38.3848 35.95C38.1648 35.7433 37.8315 35.64 37.3848 35.64C37.0848 35.64 36.7881 35.6867 36.4948 35.78C36.2081 35.8733 35.9648 36.0033 35.7648 36.17L35.2748 35.26C35.5615 35.04 35.9015 34.8767 36.2948 34.77C36.6948 34.6567 37.1081 34.6 37.5348 34.6C38.3081 34.6 38.9048 34.7867 39.3248 35.16C39.7515 35.5267 39.9648 36.0967 39.9648 36.87V40H38.7848ZM37.1048 40.07C36.7048 40.07 36.3548 40.0033 36.0548 39.87C35.7548 39.73 35.5215 39.54 35.3548 39.3C35.1948 39.0533 35.1148 38.7767 35.1148 38.47C35.1148 38.17 35.1848 37.9 35.3248 37.66C35.4715 37.42 35.7081 37.23 36.0348 37.09C36.3615 36.95 36.7948 36.88 37.3348 36.88H38.8848V37.71H37.4248C36.9981 37.71 36.7115 37.78 36.5648 37.92C36.4181 38.0533 36.3448 38.22 36.3448 38.42C36.3448 38.6467 36.4348 38.8267 36.6148 38.96C36.7948 39.0933 37.0448 39.16 37.3648 39.16C37.6715 39.16 37.9448 39.09 38.1848 38.95C38.4315 38.81 38.6081 38.6033 38.7148 38.33L38.9248 39.08C38.8048 39.3933 38.5881 39.6367 38.2748 39.81C37.9681 39.9833 37.5781 40.07 37.1048 40.07ZM41.269 40V34.66H42.459V36.13L42.319 35.7C42.479 35.34 42.729 35.0667 43.069 34.88C43.4157 34.6933 43.8457 34.6 44.359 34.6V35.79C44.3057 35.7767 44.2557 35.77 44.209 35.77C44.1624 35.7633 44.1157 35.76 44.069 35.76C43.5957 35.76 43.219 35.9 42.939 36.18C42.659 36.4533 42.519 36.8633 42.519 37.41V40H41.269Z" fill="white"/>
<path d="M4.53176 40.1C3.99842 40.1 3.50176 40.0133 3.04176 39.84C2.58842 39.66 2.19176 39.41 1.85176 39.09C1.51842 38.7633 1.25842 38.38 1.07176 37.94C0.88509 37.5 0.791757 37.02 0.791757 36.5C0.791757 35.98 0.88509 35.5 1.07176 35.06C1.25842 34.62 1.52176 34.24 1.86176 33.92C2.20176 33.5933 2.59842 33.3433 3.05176 33.17C3.50509 32.99 4.00176 32.9 4.54176 32.9C5.11509 32.9 5.63842 33 6.11176 33.2C6.58509 33.3933 6.98509 33.6833 7.31176 34.07L6.47176 34.86C6.21842 34.5867 5.93509 34.3833 5.62176 34.25C5.30842 34.11 4.96842 34.04 4.60176 34.04C4.23509 34.04 3.89842 34.1 3.59176 34.22C3.29176 34.34 3.02842 34.51 2.80176 34.73C2.58176 34.95 2.40842 35.21 2.28176 35.51C2.16176 35.81 2.10176 36.14 2.10176 36.5C2.10176 36.86 2.16176 37.19 2.28176 37.49C2.40842 37.79 2.58176 38.05 2.80176 38.27C3.02842 38.49 3.29176 38.66 3.59176 38.78C3.89842 38.9 4.23509 38.96 4.60176 38.96C4.96842 38.96 5.30842 38.8933 5.62176 38.76C5.93509 38.62 6.21842 38.41 6.47176 38.13L7.31176 38.93C6.98509 39.31 6.58509 39.6 6.11176 39.8C5.63842 40 5.11176 40.1 4.53176 40.1ZM11.3786 40V38.92L11.3086 38.69V36.8C11.3086 36.4333 11.1986 36.15 10.9786 35.95C10.7586 35.7433 10.4252 35.64 9.97855 35.64C9.67855 35.64 9.38189 35.6867 9.08855 35.78C8.80189 35.8733 8.55855 36.0033 8.35855 36.17L7.86855 35.26C8.15522 35.04 8.49522 34.8767 8.88855 34.77C9.28855 34.6567 9.70189 34.6 10.1286 34.6C10.9019 34.6 11.4986 34.7867 11.9186 35.16C12.3452 35.5267 12.5586 36.0967 12.5586 36.87V40H11.3786ZM9.69855 40.07C9.29855 40.07 8.94855 40.0033 8.64855 39.87C8.34855 39.73 8.11522 39.54 7.94855 39.3C7.78855 39.0533 7.70855 38.7767 7.70855 38.47C7.70855 38.17 7.77855 37.9 7.91855 37.66C8.06522 37.42 8.30189 37.23 8.62855 37.09C8.95522 36.95 9.38855 36.88 9.92855 36.88H11.4786V37.71H10.0186C9.59189 37.71 9.30522 37.78 9.15855 37.92C9.01189 38.0533 8.93855 38.22 8.93855 38.42C8.93855 38.6467 9.02855 38.8267 9.20855 38.96C9.38855 39.0933 9.63855 39.16 9.95855 39.16C10.2652 39.16 10.5386 39.09 10.7786 38.95C11.0252 38.81 11.2019 38.6033 11.3086 38.33L11.5186 39.08C11.3986 39.3933 11.1819 39.6367 10.8686 39.81C10.5619 39.9833 10.1719 40.07 9.69855 40.07ZM13.8628 40V32.58H15.1128V40H13.8628ZM18.9634 40.07C18.3701 40.07 17.8501 39.9533 17.4034 39.72C16.9634 39.48 16.6201 39.1533 16.3734 38.74C16.1334 38.3267 16.0134 37.8567 16.0134 37.33C16.0134 36.7967 16.1301 36.3267 16.3634 35.92C16.6034 35.5067 16.9301 35.1833 17.3434 34.95C17.7634 34.7167 18.2401 34.6 18.7734 34.6C19.2934 34.6 19.7567 34.7133 20.1634 34.94C20.5701 35.1667 20.8901 35.4867 21.1234 35.9C21.3567 36.3133 21.4734 36.8 21.4734 37.36C21.4734 37.4133 21.4701 37.4733 21.4634 37.54C21.4634 37.6067 21.4601 37.67 21.4534 37.73H17.0034V36.9H20.7934L20.3034 37.16C20.3101 36.8533 20.2467 36.5833 20.1134 36.35C19.9801 36.1167 19.7967 35.9333 19.5634 35.8C19.3367 35.6667 19.0734 35.6 18.7734 35.6C18.4667 35.6 18.1967 35.6667 17.9634 35.8C17.7367 35.9333 17.5567 36.12 17.4234 36.36C17.2967 36.5933 17.2334 36.87 17.2334 37.19V37.39C17.2334 37.71 17.3067 37.9933 17.4534 38.24C17.6001 38.4867 17.8067 38.6767 18.0734 38.81C18.3401 38.9433 18.6467 39.01 18.9934 39.01C19.2934 39.01 19.5634 38.9633 19.8034 38.87C20.0434 38.7767 20.2567 38.63 20.4434 38.43L21.1134 39.2C20.8734 39.48 20.5701 39.6967 20.2034 39.85C19.8434 39.9967 19.4301 40.07 18.9634 40.07ZM25.4041 34.6C25.8308 34.6 26.2108 34.6833 26.5441 34.85C26.8841 35.0167 27.1508 35.2733 27.3441 35.62C27.5374 35.96 27.6341 36.4 27.6341 36.94V40H26.3841V37.1C26.3841 36.6267 26.2708 36.2733 26.0441 36.04C25.8241 35.8067 25.5141 35.69 25.1141 35.69C24.8208 35.69 24.5608 35.75 24.3341 35.87C24.1074 35.99 23.9308 36.17 23.8041 36.41C23.6841 36.6433 23.6241 36.94 23.6241 37.3V40H22.3741V34.66H23.5641V36.1L23.3541 35.66C23.5408 35.32 23.8108 35.06 24.1641 34.88C24.5241 34.6933 24.9374 34.6 25.4041 34.6ZM31.1896 40.07C30.6762 40.07 30.2129 39.9567 29.7996 39.73C29.3929 39.4967 29.0729 39.1767 28.8396 38.77C28.6062 38.3633 28.4896 37.8833 28.4896 37.33C28.4896 36.7767 28.6062 36.2967 28.8396 35.89C29.0729 35.4833 29.3929 35.1667 29.7996 34.94C30.2129 34.7133 30.6762 34.6 31.1896 34.6C31.6362 34.6 32.0362 34.7 32.3896 34.9C32.7429 35.0933 33.0229 35.39 33.2296 35.79C33.4362 36.19 33.5396 36.7033 33.5396 37.33C33.5396 37.95 33.4396 38.4633 33.2396 38.87C33.0396 39.27 32.7629 39.57 32.4096 39.77C32.0562 39.97 31.6496 40.07 31.1896 40.07ZM31.3396 39C31.6396 39 31.9062 38.9333 32.1396 38.8C32.3796 38.6667 32.5696 38.4733 32.7096 38.22C32.8562 37.9667 32.9296 37.67 32.9296 37.33C32.9296 36.9833 32.8562 36.6867 32.7096 36.44C32.5696 36.1867 32.3796 35.9933 32.1396 35.86C31.9062 35.7267 31.6396 35.66 31.3396 35.66C31.0396 35.66 30.7696 35.7267 30.5296 35.86C30.2962 35.9933 30.1062 36.1867 29.9596 36.44C29.8196 36.6867 29.7496 36.9833 29.7496 37.33C29.7496 37.67 29.8196 37.9667 29.9596 38.22C30.1062 38.4733 30.2962 38.6667 30.5296 38.8C30.7696 38.9333 31.0396 39 31.3396 39ZM32.9596 40V38.74L33.0096 37.32L32.9096 35.9V32.58H34.1496V40H32.9596ZM38.7848 40V38.92L38.7148 38.69V36.8C38.7148 36.4333 38.6048 36.15 38.3848 35.95C38.1648 35.7433 37.8315 35.64 37.3848 35.64C37.0848 35.64 36.7881 35.6867 36.4948 35.78C36.2081 35.8733 35.9648 36.0033 35.7648 36.17L35.2748 35.26C35.5615 35.04 35.9015 34.8767 36.2948 34.77C36.6948 34.6567 37.1081 34.6 37.5348 34.6C38.3081 34.6 38.9048 34.7867 39.3248 35.16C39.7515 35.5267 39.9648 36.0967 39.9648 36.87V40H38.7848ZM37.1048 40.07C36.7048 40.07 36.3548 40.0033 36.0548 39.87C35.7548 39.73 35.5215 39.54 35.3548 39.3C35.1948 39.0533 35.1148 38.7767 35.1148 38.47C35.1148 38.17 35.1848 37.9 35.3248 37.66C35.4715 37.42 35.7081 37.23 36.0348 37.09C36.3615 36.95 36.7948 36.88 37.3348 36.88H38.8848V37.71H37.4248C36.9981 37.71 36.7115 37.78 36.5648 37.92C36.4181 38.0533 36.3448 38.22 36.3448 38.42C36.3448 38.6467 36.4348 38.8267 36.6148 38.96C36.7948 39.0933 37.0448 39.16 37.3648 39.16C37.6715 39.16 37.9448 39.09 38.1848 38.95C38.4315 38.81 38.6081 38.6033 38.7148 38.33L38.9248 39.08C38.8048 39.3933 38.5881 39.6367 38.2748 39.81C37.9681 39.9833 37.5781 40.07 37.1048 40.07ZM41.269 40V34.66H42.459V36.13L42.319 35.7C42.479 35.34 42.729 35.0667 43.069 34.88C43.4157 34.6933 43.8457 34.6 44.359 34.6V35.79C44.3057 35.7767 44.2557 35.77 44.209 35.77C44.1624 35.7633 44.1157 35.76 44.069 35.76C43.5957 35.76 43.219 35.9 42.939 36.18C42.659 36.4533 42.519 36.8633 42.519 37.41V40H41.269Z" fill="#06970A"/>
</svg>
