<svg width="42" height="42" viewBox="0 0 42 42" fill="none" xmlns="http://www.w3.org/2000/svg">
<path d="M31 8.52V3.98C31 2.57 30.36 2 28.77 2H24.73C23.14 2 22.5 2.57 22.5 3.98V8.51C22.5 9.93 23.14 10.49 24.73 10.49H28.77C30.36 10.5 31 9.93 31 8.52Z" stroke="white" stroke-width="1.5" stroke-linecap="round" stroke-linejoin="round"/>
<path d="M31 8.52V3.98C31 2.57 30.36 2 28.77 2H24.73C23.14 2 22.5 2.57 22.5 3.98V8.51C22.5 9.93 23.14 10.49 24.73 10.49H28.77C30.36 10.5 31 9.93 31 8.52Z" stroke="#06970A" stroke-width="1.5" stroke-linecap="round" stroke-linejoin="round"/>
<path d="M31 19.77V15.73C31 14.14 30.36 13.5 28.77 13.5H24.73C23.14 13.5 22.5 14.14 22.5 15.73V19.77C22.5 21.36 23.14 22 24.73 22H28.77C30.36 22 31 21.36 31 19.77Z" stroke="white" stroke-width="1.5" stroke-linecap="round" stroke-linejoin="round"/>
<path d="M31 19.77V15.73C31 14.14 30.36 13.5 28.77 13.5H24.73C23.14 13.5 22.5 14.14 22.5 15.73V19.77C22.5 21.36 23.14 22 24.73 22H28.77C30.36 22 31 21.36 31 19.77Z" stroke="#06970A" stroke-width="1.5" stroke-linecap="round" stroke-linejoin="round"/>
<path d="M19.5 8.52V3.98C19.5 2.57 18.86 2 17.27 2H13.23C11.64 2 11 2.57 11 3.98V8.51C11 9.93 11.64 10.49 13.23 10.49H17.27C18.86 10.5 19.5 9.93 19.5 8.52Z" stroke="white" stroke-width="1.5" stroke-linecap="round" stroke-linejoin="round"/>
<path d="M19.5 8.52V3.98C19.5 2.57 18.86 2 17.27 2H13.23C11.64 2 11 2.57 11 3.98V8.51C11 9.93 11.64 10.49 13.23 10.49H17.27C18.86 10.5 19.5 9.93 19.5 8.52Z" stroke="#06970A" stroke-width="1.5" stroke-linecap="round" stroke-linejoin="round"/>
<path d="M19.5 19.77V15.73C19.5 14.14 18.86 13.5 17.27 13.5H13.23C11.64 13.5 11 14.14 11 15.73V19.77C11 21.36 11.64 22 13.23 22H17.27C18.86 22 19.5 21.36 19.5 19.77Z" stroke="white" stroke-width="1.5" stroke-linecap="round" stroke-linejoin="round"/>
<path d="M19.5 19.77V15.73C19.5 14.14 18.86 13.5 17.27 13.5H13.23C11.64 13.5 11 14.14 11 15.73V19.77C11 21.36 11.64 22 13.23 22H17.27C18.86 22 19.5 21.36 19.5 19.77Z" stroke="#06970A" stroke-width="1.5" stroke-linecap="round" stroke-linejoin="round"/>
<path d="M1.00406 40V33H2.07406L5.13406 38.11H4.57406L7.58406 33H8.65406L8.66406 40H7.43406L7.42406 34.93H7.68406L5.12406 39.2H4.54406L1.94406 34.93H2.24406V40H1.00406ZM13.4248 40V38.92L13.3548 38.69V36.8C13.3548 36.4333 13.2448 36.15 13.0248 35.95C12.8048 35.7433 12.4715 35.64 12.0248 35.64C11.7248 35.64 11.4282 35.6867 11.1348 35.78C10.8482 35.8733 10.6048 36.0033 10.4048 36.17L9.91484 35.26C10.2015 35.04 10.5415 34.8767 10.9348 34.77C11.3348 34.6567 11.7482 34.6 12.1748 34.6C12.9482 34.6 13.5448 34.7867 13.9648 35.16C14.3915 35.5267 14.6048 36.0967 14.6048 36.87V40H13.4248ZM11.7448 40.07C11.3448 40.07 10.9948 40.0033 10.6948 39.87C10.3948 39.73 10.1615 39.54 9.99484 39.3C9.83484 39.0533 9.75484 38.7767 9.75484 38.47C9.75484 38.17 9.82484 37.9 9.96484 37.66C10.1115 37.42 10.3482 37.23 10.6748 37.09C11.0015 36.95 11.4348 36.88 11.9748 36.88H13.5248V37.71H12.0648C11.6382 37.71 11.3515 37.78 11.2048 37.92C11.0582 38.0533 10.9848 38.22 10.9848 38.42C10.9848 38.6467 11.0748 38.8267 11.2548 38.96C11.4348 39.0933 11.6848 39.16 12.0048 39.16C12.3115 39.16 12.5848 39.09 12.8248 38.95C13.0715 38.81 13.2482 38.6033 13.3548 38.33L13.5648 39.08C13.4448 39.3933 13.2282 39.6367 12.9148 39.81C12.6082 39.9833 12.2182 40.07 11.7448 40.07ZM17.9191 40.07C17.3324 40.07 16.8791 39.92 16.5591 39.62C16.2391 39.3133 16.0791 38.8633 16.0791 38.27V33.48H17.3291V38.24C17.3291 38.4933 17.3924 38.69 17.5191 38.83C17.6524 38.97 17.8357 39.04 18.0691 39.04C18.3491 39.04 18.5824 38.9667 18.7691 38.82L19.1191 39.71C18.9724 39.83 18.7924 39.92 18.5791 39.98C18.3657 40.04 18.1457 40.07 17.9191 40.07ZM15.1991 35.7V34.7H18.7591V35.7H15.1991ZM22.1216 40.07C21.5616 40.07 21.0616 39.9533 20.6216 39.72C20.1882 39.48 19.8482 39.1533 19.6016 38.74C19.3549 38.3267 19.2316 37.8567 19.2316 37.33C19.2316 36.7967 19.3549 36.3267 19.6016 35.92C19.8482 35.5067 20.1882 35.1833 20.6216 34.95C21.0616 34.7167 21.5616 34.6 22.1216 34.6C22.6416 34.6 23.0982 34.7067 23.4916 34.92C23.8916 35.1267 24.1949 35.4333 24.4016 35.84L23.4416 36.4C23.2816 36.1467 23.0849 35.96 22.8516 35.84C22.6249 35.72 22.3782 35.66 22.1116 35.66C21.8049 35.66 21.5282 35.7267 21.2816 35.86C21.0349 35.9933 20.8416 36.1867 20.7016 36.44C20.5616 36.6867 20.4916 36.9833 20.4916 37.33C20.4916 37.6767 20.5616 37.9767 20.7016 38.23C20.8416 38.4767 21.0349 38.6667 21.2816 38.8C21.5282 38.9333 21.8049 39 22.1116 39C22.3782 39 22.6249 38.94 22.8516 38.82C23.0849 38.7 23.2816 38.5133 23.4416 38.26L24.4016 38.82C24.1949 39.22 23.8916 39.53 23.4916 39.75C23.0982 39.9633 22.6416 40.07 22.1216 40.07ZM28.1633 34.6C28.5899 34.6 28.9699 34.6833 29.3033 34.85C29.6433 35.0167 29.9099 35.2733 30.1033 35.62C30.2966 35.96 30.3933 36.4 30.3933 36.94V40H29.1433V37.1C29.1433 36.6267 29.0299 36.2733 28.8033 36.04C28.5833 35.8067 28.2733 35.69 27.8733 35.69C27.5799 35.69 27.3199 35.75 27.0933 35.87C26.8666 35.99 26.6899 36.17 26.5633 36.41C26.4433 36.6433 26.3833 36.94 26.3833 37.3V40H25.1333V32.58H26.3833V36.1L26.1133 35.66C26.2999 35.32 26.5699 35.06 26.9233 34.88C27.2833 34.6933 27.6966 34.6 28.1633 34.6ZM34.1987 40.07C33.6054 40.07 33.0854 39.9533 32.6387 39.72C32.1987 39.48 31.8554 39.1533 31.6087 38.74C31.3687 38.3267 31.2487 37.8567 31.2487 37.33C31.2487 36.7967 31.3654 36.3267 31.5987 35.92C31.8387 35.5067 32.1654 35.1833 32.5787 34.95C32.9987 34.7167 33.4754 34.6 34.0087 34.6C34.5287 34.6 34.9921 34.7133 35.3987 34.94C35.8054 35.1667 36.1254 35.4867 36.3587 35.9C36.5921 36.3133 36.7088 36.8 36.7088 37.36C36.7088 37.4133 36.7054 37.4733 36.6987 37.54C36.6987 37.6067 36.6954 37.67 36.6887 37.73H32.2387V36.9H36.0287L35.5387 37.16C35.5454 36.8533 35.4821 36.5833 35.3487 36.35C35.2154 36.1167 35.0321 35.9333 34.7987 35.8C34.5721 35.6667 34.3087 35.6 34.0087 35.6C33.7021 35.6 33.4321 35.6667 33.1987 35.8C32.9721 35.9333 32.7921 36.12 32.6587 36.36C32.5321 36.5933 32.4687 36.87 32.4687 37.19V37.39C32.4687 37.71 32.5421 37.9933 32.6887 38.24C32.8354 38.4867 33.0421 38.6767 33.3087 38.81C33.5754 38.9433 33.8821 39.01 34.2287 39.01C34.5287 39.01 34.7987 38.9633 35.0387 38.87C35.2787 38.7767 35.4921 38.63 35.6787 38.43L36.3487 39.2C36.1087 39.48 35.8054 39.6967 35.4387 39.85C35.0787 39.9967 34.6654 40.07 34.1987 40.07ZM39.2595 40.07C38.8128 40.07 38.3828 40.0133 37.9695 39.9C37.5628 39.78 37.2395 39.6367 36.9995 39.47L37.4795 38.52C37.7195 38.6733 38.0061 38.8 38.3395 38.9C38.6728 39 39.0061 39.05 39.3395 39.05C39.7328 39.05 40.0161 38.9967 40.1895 38.89C40.3695 38.7833 40.4595 38.64 40.4595 38.46C40.4595 38.3133 40.3995 38.2033 40.2795 38.13C40.1595 38.05 40.0028 37.99 39.8095 37.95C39.6161 37.91 39.3995 37.8733 39.1595 37.84C38.9261 37.8067 38.6895 37.7633 38.4495 37.71C38.2161 37.65 38.0028 37.5667 37.8095 37.46C37.6161 37.3467 37.4595 37.1967 37.3395 37.01C37.2195 36.8233 37.1595 36.5767 37.1595 36.27C37.1595 35.93 37.2561 35.6367 37.4495 35.39C37.6428 35.1367 37.9128 34.9433 38.2595 34.81C38.6128 34.67 39.0295 34.6 39.5095 34.6C39.8695 34.6 40.2328 34.64 40.5995 34.72C40.9661 34.8 41.2695 34.9133 41.5095 35.06L41.0295 36.01C40.7761 35.8567 40.5195 35.7533 40.2595 35.7C40.0061 35.64 39.7528 35.61 39.4995 35.61C39.1195 35.61 38.8361 35.6667 38.6495 35.78C38.4695 35.8933 38.3795 36.0367 38.3795 36.21C38.3795 36.37 38.4395 36.49 38.5595 36.57C38.6795 36.65 38.8361 36.7133 39.0295 36.76C39.2228 36.8067 39.4361 36.8467 39.6695 36.88C39.9095 36.9067 40.1461 36.95 40.3795 37.01C40.6128 37.07 40.8261 37.1533 41.0195 37.26C41.2195 37.36 41.3795 37.5033 41.4995 37.69C41.6195 37.8767 41.6795 38.12 41.6795 38.42C41.6795 38.7533 41.5795 39.0433 41.3795 39.29C41.1861 39.5367 40.9095 39.73 40.5495 39.87C40.1895 40.0033 39.7595 40.07 39.2595 40.07Z" fill="white"/>
<path d="M1.00406 40V33H2.07406L5.13406 38.11H4.57406L7.58406 33H8.65406L8.66406 40H7.43406L7.42406 34.93H7.68406L5.12406 39.2H4.54406L1.94406 34.93H2.24406V40H1.00406ZM13.4248 40V38.92L13.3548 38.69V36.8C13.3548 36.4333 13.2448 36.15 13.0248 35.95C12.8048 35.7433 12.4715 35.64 12.0248 35.64C11.7248 35.64 11.4282 35.6867 11.1348 35.78C10.8482 35.8733 10.6048 36.0033 10.4048 36.17L9.91484 35.26C10.2015 35.04 10.5415 34.8767 10.9348 34.77C11.3348 34.6567 11.7482 34.6 12.1748 34.6C12.9482 34.6 13.5448 34.7867 13.9648 35.16C14.3915 35.5267 14.6048 36.0967 14.6048 36.87V40H13.4248ZM11.7448 40.07C11.3448 40.07 10.9948 40.0033 10.6948 39.87C10.3948 39.73 10.1615 39.54 9.99484 39.3C9.83484 39.0533 9.75484 38.7767 9.75484 38.47C9.75484 38.17 9.82484 37.9 9.96484 37.66C10.1115 37.42 10.3482 37.23 10.6748 37.09C11.0015 36.95 11.4348 36.88 11.9748 36.88H13.5248V37.71H12.0648C11.6382 37.71 11.3515 37.78 11.2048 37.92C11.0582 38.0533 10.9848 38.22 10.9848 38.42C10.9848 38.6467 11.0748 38.8267 11.2548 38.96C11.4348 39.0933 11.6848 39.16 12.0048 39.16C12.3115 39.16 12.5848 39.09 12.8248 38.95C13.0715 38.81 13.2482 38.6033 13.3548 38.33L13.5648 39.08C13.4448 39.3933 13.2282 39.6367 12.9148 39.81C12.6082 39.9833 12.2182 40.07 11.7448 40.07ZM17.9191 40.07C17.3324 40.07 16.8791 39.92 16.5591 39.62C16.2391 39.3133 16.0791 38.8633 16.0791 38.27V33.48H17.3291V38.24C17.3291 38.4933 17.3924 38.69 17.5191 38.83C17.6524 38.97 17.8357 39.04 18.0691 39.04C18.3491 39.04 18.5824 38.9667 18.7691 38.82L19.1191 39.71C18.9724 39.83 18.7924 39.92 18.5791 39.98C18.3657 40.04 18.1457 40.07 17.9191 40.07ZM15.1991 35.7V34.7H18.7591V35.7H15.1991ZM22.1216 40.07C21.5616 40.07 21.0616 39.9533 20.6216 39.72C20.1882 39.48 19.8482 39.1533 19.6016 38.74C19.3549 38.3267 19.2316 37.8567 19.2316 37.33C19.2316 36.7967 19.3549 36.3267 19.6016 35.92C19.8482 35.5067 20.1882 35.1833 20.6216 34.95C21.0616 34.7167 21.5616 34.6 22.1216 34.6C22.6416 34.6 23.0982 34.7067 23.4916 34.92C23.8916 35.1267 24.1949 35.4333 24.4016 35.84L23.4416 36.4C23.2816 36.1467 23.0849 35.96 22.8516 35.84C22.6249 35.72 22.3782 35.66 22.1116 35.66C21.8049 35.66 21.5282 35.7267 21.2816 35.86C21.0349 35.9933 20.8416 36.1867 20.7016 36.44C20.5616 36.6867 20.4916 36.9833 20.4916 37.33C20.4916 37.6767 20.5616 37.9767 20.7016 38.23C20.8416 38.4767 21.0349 38.6667 21.2816 38.8C21.5282 38.9333 21.8049 39 22.1116 39C22.3782 39 22.6249 38.94 22.8516 38.82C23.0849 38.7 23.2816 38.5133 23.4416 38.26L24.4016 38.82C24.1949 39.22 23.8916 39.53 23.4916 39.75C23.0982 39.9633 22.6416 40.07 22.1216 40.07ZM28.1633 34.6C28.5899 34.6 28.9699 34.6833 29.3033 34.85C29.6433 35.0167 29.9099 35.2733 30.1033 35.62C30.2966 35.96 30.3933 36.4 30.3933 36.94V40H29.1433V37.1C29.1433 36.6267 29.0299 36.2733 28.8033 36.04C28.5833 35.8067 28.2733 35.69 27.8733 35.69C27.5799 35.69 27.3199 35.75 27.0933 35.87C26.8666 35.99 26.6899 36.17 26.5633 36.41C26.4433 36.6433 26.3833 36.94 26.3833 37.3V40H25.1333V32.58H26.3833V36.1L26.1133 35.66C26.2999 35.32 26.5699 35.06 26.9233 34.88C27.2833 34.6933 27.6966 34.6 28.1633 34.6ZM34.1987 40.07C33.6054 40.07 33.0854 39.9533 32.6387 39.72C32.1987 39.48 31.8554 39.1533 31.6087 38.74C31.3687 38.3267 31.2487 37.8567 31.2487 37.33C31.2487 36.7967 31.3654 36.3267 31.5987 35.92C31.8387 35.5067 32.1654 35.1833 32.5787 34.95C32.9987 34.7167 33.4754 34.6 34.0087 34.6C34.5287 34.6 34.9921 34.7133 35.3987 34.94C35.8054 35.1667 36.1254 35.4867 36.3587 35.9C36.5921 36.3133 36.7088 36.8 36.7088 37.36C36.7088 37.4133 36.7054 37.4733 36.6987 37.54C36.6987 37.6067 36.6954 37.67 36.6887 37.73H32.2387V36.9H36.0287L35.5387 37.16C35.5454 36.8533 35.4821 36.5833 35.3487 36.35C35.2154 36.1167 35.0321 35.9333 34.7987 35.8C34.5721 35.6667 34.3087 35.6 34.0087 35.6C33.7021 35.6 33.4321 35.6667 33.1987 35.8C32.9721 35.9333 32.7921 36.12 32.6587 36.36C32.5321 36.5933 32.4687 36.87 32.4687 37.19V37.39C32.4687 37.71 32.5421 37.9933 32.6887 38.24C32.8354 38.4867 33.0421 38.6767 33.3087 38.81C33.5754 38.9433 33.8821 39.01 34.2287 39.01C34.5287 39.01 34.7987 38.9633 35.0387 38.87C35.2787 38.7767 35.4921 38.63 35.6787 38.43L36.3487 39.2C36.1087 39.48 35.8054 39.6967 35.4387 39.85C35.0787 39.9967 34.6654 40.07 34.1987 40.07ZM39.2595 40.07C38.8128 40.07 38.3828 40.0133 37.9695 39.9C37.5628 39.78 37.2395 39.6367 36.9995 39.47L37.4795 38.52C37.7195 38.6733 38.0061 38.8 38.3395 38.9C38.6728 39 39.0061 39.05 39.3395 39.05C39.7328 39.05 40.0161 38.9967 40.1895 38.89C40.3695 38.7833 40.4595 38.64 40.4595 38.46C40.4595 38.3133 40.3995 38.2033 40.2795 38.13C40.1595 38.05 40.0028 37.99 39.8095 37.95C39.6161 37.91 39.3995 37.8733 39.1595 37.84C38.9261 37.8067 38.6895 37.7633 38.4495 37.71C38.2161 37.65 38.0028 37.5667 37.8095 37.46C37.6161 37.3467 37.4595 37.1967 37.3395 37.01C37.2195 36.8233 37.1595 36.5767 37.1595 36.27C37.1595 35.93 37.2561 35.6367 37.4495 35.39C37.6428 35.1367 37.9128 34.9433 38.2595 34.81C38.6128 34.67 39.0295 34.6 39.5095 34.6C39.8695 34.6 40.2328 34.64 40.5995 34.72C40.9661 34.8 41.2695 34.9133 41.5095 35.06L41.0295 36.01C40.7761 35.8567 40.5195 35.7533 40.2595 35.7C40.0061 35.64 39.7528 35.61 39.4995 35.61C39.1195 35.61 38.8361 35.6667 38.6495 35.78C38.4695 35.8933 38.3795 36.0367 38.3795 36.21C38.3795 36.37 38.4395 36.49 38.5595 36.57C38.6795 36.65 38.8361 36.7133 39.0295 36.76C39.2228 36.8067 39.4361 36.8467 39.6695 36.88C39.9095 36.9067 40.1461 36.95 40.3795 37.01C40.6128 37.07 40.8261 37.1533 41.0195 37.26C41.2195 37.36 41.3795 37.5033 41.4995 37.69C41.6195 37.8767 41.6795 38.12 41.6795 38.42C41.6795 38.7533 41.5795 39.0433 41.3795 39.29C41.1861 39.5367 40.9095 39.73 40.5495 39.87C40.1895 40.0033 39.7595 40.07 39.2595 40.07Z" fill="#06970A"/>
</svg>
