<svg width="29" height="42" viewBox="0 0 29 42" fill="none" xmlns="http://www.w3.org/2000/svg">
<path d="M14.87 8.88H20.12" stroke="white" stroke-width="1.5" stroke-linecap="round" stroke-linejoin="round"/>
<path d="M14.87 8.88H20.12" stroke="#06970A" stroke-width="1.5" stroke-linecap="round" stroke-linejoin="round"/>
<path d="M8.88 8.88L9.63 9.63L11.88 7.38" stroke="white" stroke-width="1.5" stroke-linecap="round" stroke-linejoin="round"/>
<path d="M8.88 8.88L9.63 9.63L11.88 7.38" stroke="#06970A" stroke-width="1.5" stroke-linecap="round" stroke-linejoin="round"/>
<path d="M14.87 15.88H20.12" stroke="white" stroke-width="1.5" stroke-linecap="round" stroke-linejoin="round"/>
<path d="M14.87 15.88H20.12" stroke="#06970A" stroke-width="1.5" stroke-linecap="round" stroke-linejoin="round"/>
<path d="M8.88 15.88L9.63 16.63L11.88 14.38" stroke="white" stroke-width="1.5" stroke-linecap="round" stroke-linejoin="round"/>
<path d="M8.88 15.88L9.63 16.63L11.88 14.38" stroke="#06970A" stroke-width="1.5" stroke-linecap="round" stroke-linejoin="round"/>
<path d="M11.5 22H17.5C22.5 22 24.5 20 24.5 15V9C24.5 4 22.5 2 17.5 2H11.5C6.5 2 4.5 4 4.5 9V15C4.5 20 6.5 22 11.5 22Z" stroke="white" stroke-width="1.5" stroke-linecap="round" stroke-linejoin="round"/>
<path d="M11.5 22H17.5C22.5 22 24.5 20 24.5 15V9C24.5 4 22.5 2 17.5 2H11.5C6.5 2 4.5 4 4.5 9V15C4.5 20 6.5 22 11.5 22Z" stroke="#06970A" stroke-width="1.5" stroke-linecap="round" stroke-linejoin="round"/>
<path d="M1.05465 40V33H2.12465L6.51465 38.39H5.98465V33H7.27465V40H6.20465L1.81465 34.61H2.34465V40H1.05465ZM11.1304 40.07C10.5837 40.07 10.097 39.9533 9.67035 39.72C9.24369 39.48 8.90702 39.1533 8.66035 38.74C8.41369 38.3267 8.29035 37.8567 8.29035 37.33C8.29035 36.7967 8.41369 36.3267 8.66035 35.92C8.90702 35.5067 9.24369 35.1833 9.67035 34.95C10.097 34.7167 10.5837 34.6 11.1304 34.6C11.6837 34.6 12.1737 34.7167 12.6004 34.95C13.0337 35.1833 13.3704 35.5033 13.6104 35.91C13.857 36.3167 13.9804 36.79 13.9804 37.33C13.9804 37.8567 13.857 38.3267 13.6104 38.74C13.3704 39.1533 13.0337 39.48 12.6004 39.72C12.1737 39.9533 11.6837 40.07 11.1304 40.07ZM11.1304 39C11.437 39 11.7104 38.9333 11.9504 38.8C12.1904 38.6667 12.377 38.4733 12.5104 38.22C12.6504 37.9667 12.7204 37.67 12.7204 37.33C12.7204 36.9833 12.6504 36.6867 12.5104 36.44C12.377 36.1867 12.1904 35.9933 11.9504 35.86C11.7104 35.7267 11.4404 35.66 11.1404 35.66C10.8337 35.66 10.5604 35.7267 10.3204 35.86C10.087 35.9933 9.90035 36.1867 9.76035 36.44C9.62035 36.6867 9.55035 36.9833 9.55035 37.33C9.55035 37.67 9.62035 37.9667 9.76035 38.22C9.90035 38.4733 10.087 38.6667 10.3204 38.8C10.5604 38.9333 10.8304 39 11.1304 39ZM16.8857 40.07C16.299 40.07 15.8457 39.92 15.5257 39.62C15.2057 39.3133 15.0457 38.8633 15.0457 38.27V33.48H16.2957V38.24C16.2957 38.4933 16.359 38.69 16.4857 38.83C16.619 38.97 16.8023 39.04 17.0357 39.04C17.3157 39.04 17.549 38.9667 17.7357 38.82L18.0857 39.71C17.939 39.83 17.759 39.92 17.5457 39.98C17.3323 40.04 17.1123 40.07 16.8857 40.07ZM14.1657 35.7V34.7H17.7257V35.7H14.1657ZM21.1482 40.07C20.5548 40.07 20.0348 39.9533 19.5882 39.72C19.1482 39.48 18.8048 39.1533 18.5582 38.74C18.3182 38.3267 18.1982 37.8567 18.1982 37.33C18.1982 36.7967 18.3148 36.3267 18.5482 35.92C18.7882 35.5067 19.1148 35.1833 19.5282 34.95C19.9482 34.7167 20.4248 34.6 20.9582 34.6C21.4782 34.6 21.9415 34.7133 22.3482 34.94C22.7548 35.1667 23.0748 35.4867 23.3082 35.9C23.5415 36.3133 23.6582 36.8 23.6582 37.36C23.6582 37.4133 23.6548 37.4733 23.6482 37.54C23.6482 37.6067 23.6448 37.67 23.6382 37.73H19.1882V36.9H22.9782L22.4882 37.16C22.4948 36.8533 22.4315 36.5833 22.2982 36.35C22.1648 36.1167 21.9815 35.9333 21.7482 35.8C21.5215 35.6667 21.2582 35.6 20.9582 35.6C20.6515 35.6 20.3815 35.6667 20.1482 35.8C19.9215 35.9333 19.7415 36.12 19.6082 36.36C19.4815 36.5933 19.4182 36.87 19.4182 37.19V37.39C19.4182 37.71 19.4915 37.9933 19.6382 38.24C19.7848 38.4867 19.9915 38.6767 20.2582 38.81C20.5248 38.9433 20.8315 39.01 21.1782 39.01C21.4782 39.01 21.7482 38.9633 21.9882 38.87C22.2282 38.7767 22.4415 38.63 22.6282 38.43L23.2982 39.2C23.0582 39.48 22.7548 39.6967 22.3882 39.85C22.0282 39.9967 21.6148 40.07 21.1482 40.07ZM26.2089 40.07C25.7622 40.07 25.3322 40.0133 24.9189 39.9C24.5122 39.78 24.1889 39.6367 23.9489 39.47L24.4289 38.52C24.6689 38.6733 24.9555 38.8 25.2889 38.9C25.6222 39 25.9555 39.05 26.2889 39.05C26.6822 39.05 26.9655 38.9967 27.1389 38.89C27.3189 38.7833 27.4089 38.64 27.4089 38.46C27.4089 38.3133 27.3489 38.2033 27.2289 38.13C27.1089 38.05 26.9522 37.99 26.7589 37.95C26.5655 37.91 26.3489 37.8733 26.1089 37.84C25.8755 37.8067 25.6389 37.7633 25.3989 37.71C25.1655 37.65 24.9522 37.5667 24.7589 37.46C24.5655 37.3467 24.4089 37.1967 24.2889 37.01C24.1689 36.8233 24.1089 36.5767 24.1089 36.27C24.1089 35.93 24.2055 35.6367 24.3989 35.39C24.5922 35.1367 24.8622 34.9433 25.2089 34.81C25.5622 34.67 25.9789 34.6 26.4589 34.6C26.8189 34.6 27.1822 34.64 27.5489 34.72C27.9155 34.8 28.2189 34.9133 28.4589 35.06L27.9789 36.01C27.7255 35.8567 27.4689 35.7533 27.2089 35.7C26.9555 35.64 26.7022 35.61 26.4489 35.61C26.0689 35.61 25.7855 35.6667 25.5989 35.78C25.4189 35.8933 25.3289 36.0367 25.3289 36.21C25.3289 36.37 25.3889 36.49 25.5089 36.57C25.6289 36.65 25.7855 36.7133 25.9789 36.76C26.1722 36.8067 26.3855 36.8467 26.6189 36.88C26.8589 36.9067 27.0955 36.95 27.3289 37.01C27.5622 37.07 27.7755 37.1533 27.9689 37.26C28.1689 37.36 28.3289 37.5033 28.4489 37.69C28.5689 37.8767 28.6289 38.12 28.6289 38.42C28.6289 38.7533 28.5289 39.0433 28.3289 39.29C28.1355 39.5367 27.8589 39.73 27.4989 39.87C27.1389 40.0033 26.7089 40.07 26.2089 40.07Z" fill="white"/>
<path d="M1.05465 40V33H2.12465L6.51465 38.39H5.98465V33H7.27465V40H6.20465L1.81465 34.61H2.34465V40H1.05465ZM11.1304 40.07C10.5837 40.07 10.097 39.9533 9.67035 39.72C9.24369 39.48 8.90702 39.1533 8.66035 38.74C8.41369 38.3267 8.29035 37.8567 8.29035 37.33C8.29035 36.7967 8.41369 36.3267 8.66035 35.92C8.90702 35.5067 9.24369 35.1833 9.67035 34.95C10.097 34.7167 10.5837 34.6 11.1304 34.6C11.6837 34.6 12.1737 34.7167 12.6004 34.95C13.0337 35.1833 13.3704 35.5033 13.6104 35.91C13.857 36.3167 13.9804 36.79 13.9804 37.33C13.9804 37.8567 13.857 38.3267 13.6104 38.74C13.3704 39.1533 13.0337 39.48 12.6004 39.72C12.1737 39.9533 11.6837 40.07 11.1304 40.07ZM11.1304 39C11.437 39 11.7104 38.9333 11.9504 38.8C12.1904 38.6667 12.377 38.4733 12.5104 38.22C12.6504 37.9667 12.7204 37.67 12.7204 37.33C12.7204 36.9833 12.6504 36.6867 12.5104 36.44C12.377 36.1867 12.1904 35.9933 11.9504 35.86C11.7104 35.7267 11.4404 35.66 11.1404 35.66C10.8337 35.66 10.5604 35.7267 10.3204 35.86C10.087 35.9933 9.90035 36.1867 9.76035 36.44C9.62035 36.6867 9.55035 36.9833 9.55035 37.33C9.55035 37.67 9.62035 37.9667 9.76035 38.22C9.90035 38.4733 10.087 38.6667 10.3204 38.8C10.5604 38.9333 10.8304 39 11.1304 39ZM16.8857 40.07C16.299 40.07 15.8457 39.92 15.5257 39.62C15.2057 39.3133 15.0457 38.8633 15.0457 38.27V33.48H16.2957V38.24C16.2957 38.4933 16.359 38.69 16.4857 38.83C16.619 38.97 16.8023 39.04 17.0357 39.04C17.3157 39.04 17.549 38.9667 17.7357 38.82L18.0857 39.71C17.939 39.83 17.759 39.92 17.5457 39.98C17.3323 40.04 17.1123 40.07 16.8857 40.07ZM14.1657 35.7V34.7H17.7257V35.7H14.1657ZM21.1482 40.07C20.5548 40.07 20.0348 39.9533 19.5882 39.72C19.1482 39.48 18.8048 39.1533 18.5582 38.74C18.3182 38.3267 18.1982 37.8567 18.1982 37.33C18.1982 36.7967 18.3148 36.3267 18.5482 35.92C18.7882 35.5067 19.1148 35.1833 19.5282 34.95C19.9482 34.7167 20.4248 34.6 20.9582 34.6C21.4782 34.6 21.9415 34.7133 22.3482 34.94C22.7548 35.1667 23.0748 35.4867 23.3082 35.9C23.5415 36.3133 23.6582 36.8 23.6582 37.36C23.6582 37.4133 23.6548 37.4733 23.6482 37.54C23.6482 37.6067 23.6448 37.67 23.6382 37.73H19.1882V36.9H22.9782L22.4882 37.16C22.4948 36.8533 22.4315 36.5833 22.2982 36.35C22.1648 36.1167 21.9815 35.9333 21.7482 35.8C21.5215 35.6667 21.2582 35.6 20.9582 35.6C20.6515 35.6 20.3815 35.6667 20.1482 35.8C19.9215 35.9333 19.7415 36.12 19.6082 36.36C19.4815 36.5933 19.4182 36.87 19.4182 37.19V37.39C19.4182 37.71 19.4915 37.9933 19.6382 38.24C19.7848 38.4867 19.9915 38.6767 20.2582 38.81C20.5248 38.9433 20.8315 39.01 21.1782 39.01C21.4782 39.01 21.7482 38.9633 21.9882 38.87C22.2282 38.7767 22.4415 38.63 22.6282 38.43L23.2982 39.2C23.0582 39.48 22.7548 39.6967 22.3882 39.85C22.0282 39.9967 21.6148 40.07 21.1482 40.07ZM26.2089 40.07C25.7622 40.07 25.3322 40.0133 24.9189 39.9C24.5122 39.78 24.1889 39.6367 23.9489 39.47L24.4289 38.52C24.6689 38.6733 24.9555 38.8 25.2889 38.9C25.6222 39 25.9555 39.05 26.2889 39.05C26.6822 39.05 26.9655 38.9967 27.1389 38.89C27.3189 38.7833 27.4089 38.64 27.4089 38.46C27.4089 38.3133 27.3489 38.2033 27.2289 38.13C27.1089 38.05 26.9522 37.99 26.7589 37.95C26.5655 37.91 26.3489 37.8733 26.1089 37.84C25.8755 37.8067 25.6389 37.7633 25.3989 37.71C25.1655 37.65 24.9522 37.5667 24.7589 37.46C24.5655 37.3467 24.4089 37.1967 24.2889 37.01C24.1689 36.8233 24.1089 36.5767 24.1089 36.27C24.1089 35.93 24.2055 35.6367 24.3989 35.39C24.5922 35.1367 24.8622 34.9433 25.2089 34.81C25.5622 34.67 25.9789 34.6 26.4589 34.6C26.8189 34.6 27.1822 34.64 27.5489 34.72C27.9155 34.8 28.2189 34.9133 28.4589 35.06L27.9789 36.01C27.7255 35.8567 27.4689 35.7533 27.2089 35.7C26.9555 35.64 26.7022 35.61 26.4489 35.61C26.0689 35.61 25.7855 35.6667 25.5989 35.78C25.4189 35.8933 25.3289 36.0367 25.3289 36.21C25.3289 36.37 25.3889 36.49 25.5089 36.57C25.6289 36.65 25.7855 36.7133 25.9789 36.76C26.1722 36.8067 26.3855 36.8467 26.6189 36.88C26.8589 36.9067 27.0955 36.95 27.3289 37.01C27.5622 37.07 27.7755 37.1533 27.9689 37.26C28.1689 37.36 28.3289 37.5033 28.4489 37.69C28.5689 37.8767 28.6289 38.12 28.6289 38.42C28.6289 38.7533 28.5289 39.0433 28.3289 39.29C28.1355 39.5367 27.8589 39.73 27.4989 39.87C27.1389 40.0033 26.7089 40.07 26.2089 40.07Z" fill="#06970A"/>
</svg>
