<svg width="57" height="42" viewBox="0 0 57 42" fill="none" xmlns="http://www.w3.org/2000/svg">
<path d="M38.43 6.76001L35.06 20.29C34.82 21.3 33.92 22 32.88 22H19.74C18.23 22 17.15 20.5199 17.6 19.0699L21.81 5.55005C22.1 4.61005 22.97 3.95996 23.95 3.95996H36.25C37.2 3.95996 37.99 4.53997 38.32 5.33997C38.51 5.76997 38.55 6.26001 38.43 6.76001Z" stroke="white" stroke-width="1.5" stroke-miterlimit="10"/>
<path d="M38.43 6.76001L35.06 20.29C34.82 21.3 33.92 22 32.88 22H19.74C18.23 22 17.15 20.5199 17.6 19.0699L21.81 5.55005C22.1 4.61005 22.97 3.95996 23.95 3.95996H36.25C37.2 3.95996 37.99 4.53997 38.32 5.33997C38.51 5.76997 38.55 6.26001 38.43 6.76001Z" stroke="#06970A" stroke-width="1.5" stroke-miterlimit="10"/>
<path d="M32.5 22H37.28C38.57 22 39.58 20.91 39.49 19.62L38.5 6" stroke="white" stroke-width="1.5" stroke-miterlimit="10" stroke-linecap="round" stroke-linejoin="round"/>
<path d="M32.5 22H37.28C38.57 22 39.58 20.91 39.49 19.62L38.5 6" stroke="#06970A" stroke-width="1.5" stroke-miterlimit="10" stroke-linecap="round" stroke-linejoin="round"/>
<path d="M26.1799 6.38L27.2199 2.06006" stroke="white" stroke-width="1.5" stroke-miterlimit="10" stroke-linecap="round" stroke-linejoin="round"/>
<path d="M26.1799 6.38L27.2199 2.06006" stroke="#06970A" stroke-width="1.5" stroke-miterlimit="10" stroke-linecap="round" stroke-linejoin="round"/>
<path d="M32.88 6.39001L33.82 2.05005" stroke="white" stroke-width="1.5" stroke-miterlimit="10" stroke-linecap="round" stroke-linejoin="round"/>
<path d="M32.88 6.39001L33.82 2.05005" stroke="#06970A" stroke-width="1.5" stroke-miterlimit="10" stroke-linecap="round" stroke-linejoin="round"/>
<path d="M24.2 12H32.2" stroke="white" stroke-width="1.5" stroke-miterlimit="10" stroke-linecap="round" stroke-linejoin="round"/>
<path d="M24.2 12H32.2" stroke="#06970A" stroke-width="1.5" stroke-miterlimit="10" stroke-linecap="round" stroke-linejoin="round"/>
<path d="M23.2 16H31.2" stroke="white" stroke-width="1.5" stroke-miterlimit="10" stroke-linecap="round" stroke-linejoin="round"/>
<path d="M23.2 16H31.2" stroke="#06970A" stroke-width="1.5" stroke-miterlimit="10" stroke-linecap="round" stroke-linejoin="round"/>
<path d="M3.8682 40.1C3.32154 40.1 2.7982 40.0233 2.2982 39.87C1.7982 39.71 1.40154 39.5067 1.1082 39.26L1.5582 38.25C1.8382 38.47 2.18487 38.6533 2.5982 38.8C3.01154 38.9467 3.43487 39.02 3.8682 39.02C4.23487 39.02 4.53154 38.98 4.7582 38.9C4.98487 38.82 5.15154 38.7133 5.2582 38.58C5.36487 38.44 5.4182 38.2833 5.4182 38.11C5.4182 37.8967 5.34154 37.7267 5.1882 37.6C5.03487 37.4667 4.83487 37.3633 4.5882 37.29C4.3482 37.21 4.0782 37.1367 3.7782 37.07C3.48487 37.0033 3.1882 36.9267 2.8882 36.84C2.59487 36.7467 2.32487 36.63 2.0782 36.49C1.8382 36.3433 1.64154 36.15 1.4882 35.91C1.33487 35.67 1.2582 35.3633 1.2582 34.99C1.2582 34.61 1.3582 34.2633 1.5582 33.95C1.76487 33.63 2.07487 33.3767 2.4882 33.19C2.9082 32.9967 3.4382 32.9 4.0782 32.9C4.4982 32.9 4.91487 32.9533 5.3282 33.06C5.74154 33.1667 6.10154 33.32 6.4082 33.52L5.9982 34.53C5.68487 34.3433 5.36154 34.2067 5.0282 34.12C4.69487 34.0267 4.37487 33.98 4.0682 33.98C3.7082 33.98 3.41487 34.0233 3.1882 34.11C2.9682 34.1967 2.80487 34.31 2.6982 34.45C2.5982 34.59 2.5482 34.75 2.5482 34.93C2.5482 35.1433 2.62154 35.3167 2.7682 35.45C2.92154 35.5767 3.1182 35.6767 3.3582 35.75C3.60487 35.8233 3.8782 35.8967 4.1782 35.97C4.4782 36.0367 4.77487 36.1133 5.0682 36.2C5.3682 36.2867 5.6382 36.4 5.8782 36.54C6.12487 36.68 6.32154 36.87 6.4682 37.11C6.62154 37.35 6.6982 37.6533 6.6982 38.02C6.6982 38.3933 6.59487 38.74 6.3882 39.06C6.1882 39.3733 5.8782 39.6267 5.4582 39.82C5.0382 40.0067 4.5082 40.1 3.8682 40.1ZM10.5273 40.07C10.0939 40.07 9.69727 39.97 9.33727 39.77C8.98393 39.57 8.7006 39.27 8.48727 38.87C8.2806 38.4633 8.17727 37.95 8.17727 37.33C8.17727 36.7033 8.27727 36.19 8.47727 35.79C8.68393 35.39 8.96393 35.0933 9.31727 34.9C9.6706 34.7 10.0739 34.6 10.5273 34.6C11.0539 34.6 11.5173 34.7133 11.9173 34.94C12.3239 35.1667 12.6439 35.4833 12.8773 35.89C13.1173 36.2967 13.2373 36.7767 13.2373 37.33C13.2373 37.8833 13.1173 38.3667 12.8773 38.78C12.6439 39.1867 12.3239 39.5033 11.9173 39.73C11.5173 39.9567 11.0539 40.07 10.5273 40.07ZM7.56727 41.94V34.66H8.75727V35.92L8.71727 37.34L8.81727 38.76V41.94H7.56727ZM10.3873 39C10.6873 39 10.9539 38.9333 11.1873 38.8C11.4273 38.6667 11.6173 38.4733 11.7573 38.22C11.8973 37.9667 11.9673 37.67 11.9673 37.33C11.9673 36.9833 11.8973 36.6867 11.7573 36.44C11.6173 36.1867 11.4273 35.9933 11.1873 35.86C10.9539 35.7267 10.6873 35.66 10.3873 35.66C10.0873 35.66 9.81727 35.7267 9.57727 35.86C9.33727 35.9933 9.14727 36.1867 9.00727 36.44C8.86727 36.6867 8.79727 36.9833 8.79727 37.33C8.79727 37.67 8.86727 37.9667 9.00727 38.22C9.14727 38.4733 9.33727 38.6667 9.57727 38.8C9.81727 38.9333 10.0873 39 10.3873 39ZM16.5227 40.07C15.9761 40.07 15.4894 39.9533 15.0627 39.72C14.6361 39.48 14.2994 39.1533 14.0527 38.74C13.8061 38.3267 13.6827 37.8567 13.6827 37.33C13.6827 36.7967 13.8061 36.3267 14.0527 35.92C14.2994 35.5067 14.6361 35.1833 15.0627 34.95C15.4894 34.7167 15.9761 34.6 16.5227 34.6C17.0761 34.6 17.5661 34.7167 17.9927 34.95C18.4261 35.1833 18.7627 35.5033 19.0027 35.91C19.2494 36.3167 19.3727 36.79 19.3727 37.33C19.3727 37.8567 19.2494 38.3267 19.0027 38.74C18.7627 39.1533 18.4261 39.48 17.9927 39.72C17.5661 39.9533 17.0761 40.07 16.5227 40.07ZM16.5227 39C16.8294 39 17.1027 38.9333 17.3427 38.8C17.5827 38.6667 17.7694 38.4733 17.9027 38.22C18.0427 37.9667 18.1127 37.67 18.1127 37.33C18.1127 36.9833 18.0427 36.6867 17.9027 36.44C17.7694 36.1867 17.5827 35.9933 17.3427 35.86C17.1027 35.7267 16.8327 35.66 16.5327 35.66C16.2261 35.66 15.9527 35.7267 15.7127 35.86C15.4794 35.9933 15.2927 36.1867 15.1527 36.44C15.0127 36.6867 14.9427 36.9833 14.9427 37.33C14.9427 37.67 15.0127 37.9667 15.1527 38.22C15.2927 38.4733 15.4794 38.6667 15.7127 38.8C15.9527 38.9333 16.2227 39 16.5227 39ZM20.268 40V34.66H21.458V36.13L21.318 35.7C21.478 35.34 21.728 35.0667 22.068 34.88C22.4147 34.6933 22.8447 34.6 23.358 34.6V35.79C23.3047 35.7767 23.2547 35.77 23.208 35.77C23.1614 35.7633 23.1147 35.76 23.068 35.76C22.5947 35.76 22.218 35.9 21.938 36.18C21.658 36.4533 21.518 36.8633 21.518 37.41V40H20.268ZM26.3237 40.07C25.7371 40.07 25.2837 39.92 24.9637 39.62C24.6437 39.3133 24.4837 38.8633 24.4837 38.27V33.48H25.7337V38.24C25.7337 38.4933 25.7971 38.69 25.9237 38.83C26.0571 38.97 26.2404 39.04 26.4737 39.04C26.7537 39.04 26.9871 38.9667 27.1737 38.82L27.5237 39.71C27.3771 39.83 27.1971 39.92 26.9837 39.98C26.7704 40.04 26.5504 40.07 26.3237 40.07ZM23.6037 35.7V34.7H27.1637V35.7H23.6037ZM33.7457 34.6C34.1724 34.6 34.5524 34.6833 34.8857 34.85C35.2257 35.0167 35.4924 35.2733 35.6857 35.62C35.879 35.96 35.9757 36.4 35.9757 36.94V40H34.7257V37.1C34.7257 36.6267 34.6124 36.2733 34.3857 36.04C34.1657 35.8067 33.8557 35.69 33.4557 35.69C33.1624 35.69 32.9024 35.75 32.6757 35.87C32.449 35.99 32.2724 36.17 32.1457 36.41C32.0257 36.6433 31.9657 36.94 31.9657 37.3V40H30.7157V34.66H31.9057V36.1L31.6957 35.66C31.8824 35.32 32.1524 35.06 32.5057 34.88C32.8657 34.6933 33.279 34.6 33.7457 34.6ZM39.7812 40.07C39.1878 40.07 38.6678 39.9533 38.2212 39.72C37.7812 39.48 37.4378 39.1533 37.1912 38.74C36.9512 38.3267 36.8312 37.8567 36.8312 37.33C36.8312 36.7967 36.9478 36.3267 37.1812 35.92C37.4212 35.5067 37.7478 35.1833 38.1612 34.95C38.5812 34.7167 39.0578 34.6 39.5912 34.6C40.1112 34.6 40.5745 34.7133 40.9812 34.94C41.3878 35.1667 41.7078 35.4867 41.9412 35.9C42.1745 36.3133 42.2912 36.8 42.2912 37.36C42.2912 37.4133 42.2878 37.4733 42.2812 37.54C42.2812 37.6067 42.2778 37.67 42.2712 37.73H37.8212V36.9H41.6112L41.1212 37.16C41.1278 36.8533 41.0645 36.5833 40.9312 36.35C40.7978 36.1167 40.6145 35.9333 40.3812 35.8C40.1545 35.6667 39.8912 35.6 39.5912 35.6C39.2845 35.6 39.0145 35.6667 38.7812 35.8C38.5545 35.9333 38.3745 36.12 38.2412 36.36C38.1145 36.5933 38.0512 36.87 38.0512 37.19V37.39C38.0512 37.71 38.1245 37.9933 38.2712 38.24C38.4178 38.4867 38.6245 38.6767 38.8912 38.81C39.1578 38.9433 39.4645 39.01 39.8112 39.01C40.1112 39.01 40.3812 38.9633 40.6212 38.87C40.8612 38.7767 41.0745 38.63 41.2612 38.43L41.9312 39.2C41.6912 39.48 41.3878 39.6967 41.0212 39.85C40.6612 39.9967 40.2478 40.07 39.7812 40.07ZM44.2742 40L42.3142 34.66H43.4942L45.1742 39.37H44.6142L46.3742 34.66H47.4242L49.1342 39.37H48.5842L50.3142 34.66H51.4242L49.4542 40H48.2542L46.6942 35.83H47.0642L45.4742 40H44.2742ZM53.5653 40.07C53.1186 40.07 52.6886 40.0133 52.2753 39.9C51.8686 39.78 51.5453 39.6367 51.3053 39.47L51.7853 38.52C52.0253 38.6733 52.312 38.8 52.6453 38.9C52.9786 39 53.312 39.05 53.6453 39.05C54.0386 39.05 54.322 38.9967 54.4953 38.89C54.6753 38.7833 54.7653 38.64 54.7653 38.46C54.7653 38.3133 54.7053 38.2033 54.5853 38.13C54.4653 38.05 54.3086 37.99 54.1153 37.95C53.922 37.91 53.7053 37.8733 53.4653 37.84C53.232 37.8067 52.9953 37.7633 52.7553 37.71C52.522 37.65 52.3086 37.5667 52.1153 37.46C51.922 37.3467 51.7653 37.1967 51.6453 37.01C51.5253 36.8233 51.4653 36.5767 51.4653 36.27C51.4653 35.93 51.562 35.6367 51.7553 35.39C51.9486 35.1367 52.2186 34.9433 52.5653 34.81C52.9186 34.67 53.3353 34.6 53.8153 34.6C54.1753 34.6 54.5386 34.64 54.9053 34.72C55.272 34.8 55.5753 34.9133 55.8153 35.06L55.3353 36.01C55.082 35.8567 54.8253 35.7533 54.5653 35.7C54.312 35.64 54.0586 35.61 53.8053 35.61C53.4253 35.61 53.142 35.6667 52.9553 35.78C52.7753 35.8933 52.6853 36.0367 52.6853 36.21C52.6853 36.37 52.7453 36.49 52.8653 36.57C52.9853 36.65 53.142 36.7133 53.3353 36.76C53.5286 36.8067 53.742 36.8467 53.9753 36.88C54.2153 36.9067 54.452 36.95 54.6853 37.01C54.9186 37.07 55.132 37.1533 55.3253 37.26C55.5253 37.36 55.6853 37.5033 55.8053 37.69C55.9253 37.8767 55.9853 38.12 55.9853 38.42C55.9853 38.7533 55.8853 39.0433 55.6853 39.29C55.492 39.5367 55.2153 39.73 54.8553 39.87C54.4953 40.0033 54.0653 40.07 53.5653 40.07Z" fill="white"/>
<path d="M3.8682 40.1C3.32154 40.1 2.7982 40.0233 2.2982 39.87C1.7982 39.71 1.40154 39.5067 1.1082 39.26L1.5582 38.25C1.8382 38.47 2.18487 38.6533 2.5982 38.8C3.01154 38.9467 3.43487 39.02 3.8682 39.02C4.23487 39.02 4.53154 38.98 4.7582 38.9C4.98487 38.82 5.15154 38.7133 5.2582 38.58C5.36487 38.44 5.4182 38.2833 5.4182 38.11C5.4182 37.8967 5.34154 37.7267 5.1882 37.6C5.03487 37.4667 4.83487 37.3633 4.5882 37.29C4.3482 37.21 4.0782 37.1367 3.7782 37.07C3.48487 37.0033 3.1882 36.9267 2.8882 36.84C2.59487 36.7467 2.32487 36.63 2.0782 36.49C1.8382 36.3433 1.64154 36.15 1.4882 35.91C1.33487 35.67 1.2582 35.3633 1.2582 34.99C1.2582 34.61 1.3582 34.2633 1.5582 33.95C1.76487 33.63 2.07487 33.3767 2.4882 33.19C2.9082 32.9967 3.4382 32.9 4.0782 32.9C4.4982 32.9 4.91487 32.9533 5.3282 33.06C5.74154 33.1667 6.10154 33.32 6.4082 33.52L5.9982 34.53C5.68487 34.3433 5.36154 34.2067 5.0282 34.12C4.69487 34.0267 4.37487 33.98 4.0682 33.98C3.7082 33.98 3.41487 34.0233 3.1882 34.11C2.9682 34.1967 2.80487 34.31 2.6982 34.45C2.5982 34.59 2.5482 34.75 2.5482 34.93C2.5482 35.1433 2.62154 35.3167 2.7682 35.45C2.92154 35.5767 3.1182 35.6767 3.3582 35.75C3.60487 35.8233 3.8782 35.8967 4.1782 35.97C4.4782 36.0367 4.77487 36.1133 5.0682 36.2C5.3682 36.2867 5.6382 36.4 5.8782 36.54C6.12487 36.68 6.32154 36.87 6.4682 37.11C6.62154 37.35 6.6982 37.6533 6.6982 38.02C6.6982 38.3933 6.59487 38.74 6.3882 39.06C6.1882 39.3733 5.8782 39.6267 5.4582 39.82C5.0382 40.0067 4.5082 40.1 3.8682 40.1ZM10.5273 40.07C10.0939 40.07 9.69727 39.97 9.33727 39.77C8.98393 39.57 8.7006 39.27 8.48727 38.87C8.2806 38.4633 8.17727 37.95 8.17727 37.33C8.17727 36.7033 8.27727 36.19 8.47727 35.79C8.68393 35.39 8.96393 35.0933 9.31727 34.9C9.6706 34.7 10.0739 34.6 10.5273 34.6C11.0539 34.6 11.5173 34.7133 11.9173 34.94C12.3239 35.1667 12.6439 35.4833 12.8773 35.89C13.1173 36.2967 13.2373 36.7767 13.2373 37.33C13.2373 37.8833 13.1173 38.3667 12.8773 38.78C12.6439 39.1867 12.3239 39.5033 11.9173 39.73C11.5173 39.9567 11.0539 40.07 10.5273 40.07ZM7.56727 41.94V34.66H8.75727V35.92L8.71727 37.34L8.81727 38.76V41.94H7.56727ZM10.3873 39C10.6873 39 10.9539 38.9333 11.1873 38.8C11.4273 38.6667 11.6173 38.4733 11.7573 38.22C11.8973 37.9667 11.9673 37.67 11.9673 37.33C11.9673 36.9833 11.8973 36.6867 11.7573 36.44C11.6173 36.1867 11.4273 35.9933 11.1873 35.86C10.9539 35.7267 10.6873 35.66 10.3873 35.66C10.0873 35.66 9.81727 35.7267 9.57727 35.86C9.33727 35.9933 9.14727 36.1867 9.00727 36.44C8.86727 36.6867 8.79727 36.9833 8.79727 37.33C8.79727 37.67 8.86727 37.9667 9.00727 38.22C9.14727 38.4733 9.33727 38.6667 9.57727 38.8C9.81727 38.9333 10.0873 39 10.3873 39ZM16.5227 40.07C15.9761 40.07 15.4894 39.9533 15.0627 39.72C14.6361 39.48 14.2994 39.1533 14.0527 38.74C13.8061 38.3267 13.6827 37.8567 13.6827 37.33C13.6827 36.7967 13.8061 36.3267 14.0527 35.92C14.2994 35.5067 14.6361 35.1833 15.0627 34.95C15.4894 34.7167 15.9761 34.6 16.5227 34.6C17.0761 34.6 17.5661 34.7167 17.9927 34.95C18.4261 35.1833 18.7627 35.5033 19.0027 35.91C19.2494 36.3167 19.3727 36.79 19.3727 37.33C19.3727 37.8567 19.2494 38.3267 19.0027 38.74C18.7627 39.1533 18.4261 39.48 17.9927 39.72C17.5661 39.9533 17.0761 40.07 16.5227 40.07ZM16.5227 39C16.8294 39 17.1027 38.9333 17.3427 38.8C17.5827 38.6667 17.7694 38.4733 17.9027 38.22C18.0427 37.9667 18.1127 37.67 18.1127 37.33C18.1127 36.9833 18.0427 36.6867 17.9027 36.44C17.7694 36.1867 17.5827 35.9933 17.3427 35.86C17.1027 35.7267 16.8327 35.66 16.5327 35.66C16.2261 35.66 15.9527 35.7267 15.7127 35.86C15.4794 35.9933 15.2927 36.1867 15.1527 36.44C15.0127 36.6867 14.9427 36.9833 14.9427 37.33C14.9427 37.67 15.0127 37.9667 15.1527 38.22C15.2927 38.4733 15.4794 38.6667 15.7127 38.8C15.9527 38.9333 16.2227 39 16.5227 39ZM20.268 40V34.66H21.458V36.13L21.318 35.7C21.478 35.34 21.728 35.0667 22.068 34.88C22.4147 34.6933 22.8447 34.6 23.358 34.6V35.79C23.3047 35.7767 23.2547 35.77 23.208 35.77C23.1614 35.7633 23.1147 35.76 23.068 35.76C22.5947 35.76 22.218 35.9 21.938 36.18C21.658 36.4533 21.518 36.8633 21.518 37.41V40H20.268ZM26.3237 40.07C25.7371 40.07 25.2837 39.92 24.9637 39.62C24.6437 39.3133 24.4837 38.8633 24.4837 38.27V33.48H25.7337V38.24C25.7337 38.4933 25.7971 38.69 25.9237 38.83C26.0571 38.97 26.2404 39.04 26.4737 39.04C26.7537 39.04 26.9871 38.9667 27.1737 38.82L27.5237 39.71C27.3771 39.83 27.1971 39.92 26.9837 39.98C26.7704 40.04 26.5504 40.07 26.3237 40.07ZM23.6037 35.7V34.7H27.1637V35.7H23.6037ZM33.7457 34.6C34.1724 34.6 34.5524 34.6833 34.8857 34.85C35.2257 35.0167 35.4924 35.2733 35.6857 35.62C35.879 35.96 35.9757 36.4 35.9757 36.94V40H34.7257V37.1C34.7257 36.6267 34.6124 36.2733 34.3857 36.04C34.1657 35.8067 33.8557 35.69 33.4557 35.69C33.1624 35.69 32.9024 35.75 32.6757 35.87C32.449 35.99 32.2724 36.17 32.1457 36.41C32.0257 36.6433 31.9657 36.94 31.9657 37.3V40H30.7157V34.66H31.9057V36.1L31.6957 35.66C31.8824 35.32 32.1524 35.06 32.5057 34.88C32.8657 34.6933 33.279 34.6 33.7457 34.6ZM39.7812 40.07C39.1878 40.07 38.6678 39.9533 38.2212 39.72C37.7812 39.48 37.4378 39.1533 37.1912 38.74C36.9512 38.3267 36.8312 37.8567 36.8312 37.33C36.8312 36.7967 36.9478 36.3267 37.1812 35.92C37.4212 35.5067 37.7478 35.1833 38.1612 34.95C38.5812 34.7167 39.0578 34.6 39.5912 34.6C40.1112 34.6 40.5745 34.7133 40.9812 34.94C41.3878 35.1667 41.7078 35.4867 41.9412 35.9C42.1745 36.3133 42.2912 36.8 42.2912 37.36C42.2912 37.4133 42.2878 37.4733 42.2812 37.54C42.2812 37.6067 42.2778 37.67 42.2712 37.73H37.8212V36.9H41.6112L41.1212 37.16C41.1278 36.8533 41.0645 36.5833 40.9312 36.35C40.7978 36.1167 40.6145 35.9333 40.3812 35.8C40.1545 35.6667 39.8912 35.6 39.5912 35.6C39.2845 35.6 39.0145 35.6667 38.7812 35.8C38.5545 35.9333 38.3745 36.12 38.2412 36.36C38.1145 36.5933 38.0512 36.87 38.0512 37.19V37.39C38.0512 37.71 38.1245 37.9933 38.2712 38.24C38.4178 38.4867 38.6245 38.6767 38.8912 38.81C39.1578 38.9433 39.4645 39.01 39.8112 39.01C40.1112 39.01 40.3812 38.9633 40.6212 38.87C40.8612 38.7767 41.0745 38.63 41.2612 38.43L41.9312 39.2C41.6912 39.48 41.3878 39.6967 41.0212 39.85C40.6612 39.9967 40.2478 40.07 39.7812 40.07ZM44.2742 40L42.3142 34.66H43.4942L45.1742 39.37H44.6142L46.3742 34.66H47.4242L49.1342 39.37H48.5842L50.3142 34.66H51.4242L49.4542 40H48.2542L46.6942 35.83H47.0642L45.4742 40H44.2742ZM53.5653 40.07C53.1186 40.07 52.6886 40.0133 52.2753 39.9C51.8686 39.78 51.5453 39.6367 51.3053 39.47L51.7853 38.52C52.0253 38.6733 52.312 38.8 52.6453 38.9C52.9786 39 53.312 39.05 53.6453 39.05C54.0386 39.05 54.322 38.9967 54.4953 38.89C54.6753 38.7833 54.7653 38.64 54.7653 38.46C54.7653 38.3133 54.7053 38.2033 54.5853 38.13C54.4653 38.05 54.3086 37.99 54.1153 37.95C53.922 37.91 53.7053 37.8733 53.4653 37.84C53.232 37.8067 52.9953 37.7633 52.7553 37.71C52.522 37.65 52.3086 37.5667 52.1153 37.46C51.922 37.3467 51.7653 37.1967 51.6453 37.01C51.5253 36.8233 51.4653 36.5767 51.4653 36.27C51.4653 35.93 51.562 35.6367 51.7553 35.39C51.9486 35.1367 52.2186 34.9433 52.5653 34.81C52.9186 34.67 53.3353 34.6 53.8153 34.6C54.1753 34.6 54.5386 34.64 54.9053 34.72C55.272 34.8 55.5753 34.9133 55.8153 35.06L55.3353 36.01C55.082 35.8567 54.8253 35.7533 54.5653 35.7C54.312 35.64 54.0586 35.61 53.8053 35.61C53.4253 35.61 53.142 35.6667 52.9553 35.78C52.7753 35.8933 52.6853 36.0367 52.6853 36.21C52.6853 36.37 52.7453 36.49 52.8653 36.57C52.9853 36.65 53.142 36.7133 53.3353 36.76C53.5286 36.8067 53.742 36.8467 53.9753 36.88C54.2153 36.9067 54.452 36.95 54.6853 37.01C54.9186 37.07 55.132 37.1533 55.3253 37.26C55.5253 37.36 55.6853 37.5033 55.8053 37.69C55.9253 37.8767 55.9853 38.12 55.9853 38.42C55.9853 38.7533 55.8853 39.0433 55.6853 39.29C55.492 39.5367 55.2153 39.73 54.8553 39.87C54.4953 40.0033 54.0653 40.07 53.5653 40.07Z" fill="#06970A"/>
</svg>
